<svg width="512px" height="106px" viewBox="0 0 348 81" fill="none" xmlns="http://www.w3.org/2000/svg"><path d="M15.9816 0H348L332.018 81H0L15.9816 0Z" fill="var(--icon-color)"/><path d="M45.4062 59C43.6562 68 38.2812 72.5104 29.2812 72.5312C21.7604 72.5312 18 69.375 18 63.0625C18 61.8333 18.1458 60.4792 18.4375 59L25.7188 21.5C27.4688 12.5 32.8333 8 41.8125 8C49.3542 8 53.125 11.1562 53.125 17.4688C53.125 18.6979 52.9792 20.0417 52.6875 21.5L50.9688 30.375H40.5625L42.2812 21.5C42.7396 19.1667 41.9479 17.9896 39.9062 17.9688H39.8438C37.8229 17.9688 36.5833 19.1458 36.125 21.5L28.8438 59C28.3854 61.3542 29.1771 62.5312 31.2188 62.5312C33.2812 62.5312 34.5417 61.3542 35 59L36.7188 50.125H47.125L45.4062 59Z" fill="var(--icon-color-2, white)"/><path d="M75.7685 59C74.0185 68 68.6435 72.5104 59.6435 72.5312C52.1227 72.5312 48.3623 69.375 48.3623 63.0625C48.3623 61.8333 48.5081 60.4792 48.7998 59L56.081 21.5C57.831 12.5 63.1956 8 72.1748 8C79.7165 8 83.4873 11.1562 83.4873 17.4688C83.4873 18.6979 83.3415 20.0417 83.0498 21.5L75.7685 59ZM72.6435 21.5C73.1019 19.1667 72.3102 17.9896 70.2685 17.9688H70.206C68.1852 17.9688 66.9456 19.1458 66.4873 21.5L59.206 59C58.7477 61.3542 59.5394 62.5312 61.581 62.5312C63.6435 62.5312 64.904 61.3542 65.3623 59L72.6435 21.5Z" fill="var(--icon-color-2, white)"/><path d="M89.8183 8.96875H104.225C111.162 8.98958 114.631 12.0833 114.631 18.25C114.631 19.5208 114.475 20.9375 114.162 22.5L107.256 58.0312C105.506 67.0104 100.266 71.5104 91.5371 71.5312H77.6621L89.8183 8.96875ZM98.2871 18.9375L90.0058 61.5625H93.0996C95.1413 61.5625 96.3913 60.3854 96.8496 58.0312L103.756 22.5C104.214 20.125 103.423 18.9375 101.381 18.9375H98.2871Z" fill="var(--icon-color-2, white)"/><path d="M121.119 8.96875H145.619L143.681 18.9375H129.588L126.431 35.25H138.556L136.588 45.25H124.463L121.306 61.5625H135.4L133.463 71.5312H108.963L121.119 8.96875Z" fill="var(--icon-color-2, white)"/><path d="M148.981 8.96875H162.637C169.575 8.98958 173.044 12.0833 173.044 18.25C173.044 19.5208 172.887 20.9375 172.575 22.5L170.794 31.7188C169.69 37.3854 166.7 41.0521 161.825 42.7188L166.262 71.5312H154.919L153.012 44.625H152.45L147.231 71.5312H136.825L148.981 8.96875ZM157.45 18.9375L154.294 35.25H155.544C156.669 35.25 157.408 35.1875 157.762 35.0625C159.179 34.5417 160.054 33.4271 160.387 31.7188L162.169 22.5C162.627 20.125 161.835 18.9375 159.794 18.9375H157.45Z" fill="var(--icon-color-2, white)"/><path d="M180.219 8.96875H190.625L185.531 35.25H191.688L196.781 8.96875H207.188L195.031 71.5312H184.625L189.719 45.25H183.562L178.469 71.5312H168.062L180.219 8.96875Z" fill="var(--icon-color-2, white)"/><path d="M228.769 59C227.019 68 221.644 72.5104 212.644 72.5312C205.123 72.5312 201.363 69.375 201.363 63.0625C201.363 61.8333 201.508 60.4792 201.8 59L209.081 21.5C210.831 12.5 216.196 8 225.175 8C232.717 8 236.488 11.1562 236.488 17.4688C236.488 18.6979 236.342 20.0417 236.05 21.5L228.769 59ZM225.644 21.5C226.102 19.1667 225.31 17.9896 223.269 17.9688H223.206C221.185 17.9688 219.946 19.1458 219.488 21.5L212.206 59C211.748 61.3542 212.54 62.5312 214.581 62.5312C216.644 62.5312 217.904 61.3542 218.363 59L225.644 21.5Z" fill="var(--icon-color-2, white)"/><path d="M259.756 59C258.006 68 252.631 72.5104 243.631 72.5312C236.11 72.5312 232.35 69.375 232.35 63.0625C232.35 61.8333 232.496 60.4792 232.788 59L242.506 8.96875H252.913L243.194 59C242.735 61.3542 243.527 62.5312 245.569 62.5312C247.631 62.5312 248.892 61.3542 249.35 59L259.069 8.96875H269.475L259.756 59Z" fill="var(--icon-color-2, white)"/><path d="M271.056 21.5C272.806 12.5 278.171 8 287.15 8C294.692 8 298.462 11.1562 298.462 17.4688C298.462 18.6979 298.317 20.0417 298.025 21.5L296.306 30.375H285.9L287.619 21.5C288.077 19.1667 287.285 17.9896 285.244 17.9688H285.181C283.16 17.9688 281.921 19.1458 281.462 21.5L280.4 27.0625C279.9 29.6042 281.942 32.7917 286.525 36.625C291.442 40.6875 293.348 45.5625 292.244 51.25L290.744 59C288.994 68.0208 283.629 72.5312 274.65 72.5312C267.108 72.5104 263.337 69.3438 263.337 63.0312C263.337 61.8021 263.483 60.4583 263.775 59L265.494 50.125H275.9L274.181 59C273.723 61.3542 274.525 62.5312 276.587 62.5312C278.629 62.5312 279.879 61.3542 280.337 59L281.712 52C282.233 49.2292 280.202 45.9271 275.619 42.0938C270.702 38.0312 268.806 33.0833 269.931 27.25L271.056 21.5Z" fill="var(--icon-color-2, white)"/><path d="M304.794 8.96875H329.294L327.356 18.9375H313.263L310.106 35.25H322.231L320.263 45.25H308.138L304.981 61.5625H319.075L317.138 71.5312H292.638L304.794 8.96875Z" fill="var(--icon-color-2, white)"/></svg>